<?xml version="1.0" standalone="no"?>
<!DOCTYPE svg PUBLIC "-//W3C//DTD SVG 20010904//EN"
 "http://www.w3.org/TR/2001/REC-SVG-20010904/DTD/svg10.dtd">
<svg version="1.0" xmlns="http://www.w3.org/2000/svg"
 width="512.000000pt" height="512.000000pt" viewBox="0 0 512.000000 512.000000"
 preserveAspectRatio="xMidYMid meet">

<g transform="translate(0.000000,512.000000) scale(0.100000,-0.100000)"
fill="#000000" stroke="none">
<path d="M1 3918 c1 -736 5 -1168 10 -1113 115 1212 1090 2187 2304 2304 56 5
-366 9 -1112 10 l-1203 1 1 -1202z"/>
<path d="M2750 5113 c231 -22 401 -55 587 -114 808 -259 1430 -894 1678 -1713
39 -131 81 -343 94 -481 5 -55 9 377 10 1113 l1 1202 -1202 -2 c-662 0 -1187
-3 -1168 -5z"/>
<path d="M2633 4119 c-285 -33 -486 -211 -553 -489 -17 -74 -20 -118 -20 -332
l0 -248 -165 0 -165 0 0 -295 0 -295 165 0 165 0 0 -835 0 -835 345 0 345 0 0
835 0 835 225 0 225 0 4 23 c6 25 56 523 56 550 0 16 -19 17 -255 17 l-255 0
0 204 c0 195 1 204 23 237 37 56 51 59 280 59 l207 0 0 283 0 284 -167 6
c-206 9 -366 7 -460 -4z"/>
<path d="M1 1203 l-1 -1203 1203 1 c735 1 1167 5 1112 10 -138 13 -350 55
-479 94 -1007 305 -1726 1176 -1825 2210 -5 56 -9 -368 -10 -1112z"/>
<path d="M5110 2354 c0 -128 -54 -394 -121 -598 -205 -625 -656 -1155 -1249
-1468 -294 -155 -611 -245 -990 -281 -19 -2 506 -5 1168 -5 l1202 -2 0 1200
c0 660 -2 1200 -5 1200 -3 0 -5 -21 -5 -46z"/>
</g>
</svg>
